<svg width="40" height="40" viewBox="0 0 40 40" fill="none" xmlns="http://www.w3.org/2000/svg">
<g clip-path="url(#clip0_443_2039)">
<path d="M20.7071 4.19299L20 3.48539L19.2926 4.19274L3.45639 20.029C3.43798 20.04 3.41663 20.0456 3.39491 20.0447C3.36694 20.0436 3.34042 20.032 3.32063 20.0123C3.30084 19.9925 3.28925 19.9659 3.28817 19.938C3.28733 19.9163 3.29288 19.8949 3.30393 19.8765L19.9269 3.2535C19.9271 3.25332 19.9273 3.25314 19.9275 3.25295C19.9482 3.2326 19.9762 3.22119 20.0053 3.22119C20.0344 3.22119 20.0623 3.2326 20.083 3.25295C20.0832 3.25314 20.0834 3.25332 20.0836 3.2535L36.5773 19.7472L36.6846 19.8725C36.7028 19.8938 36.7123 19.9211 36.7112 19.9491C36.7102 19.9771 36.6986 20.0036 36.6788 20.0234C36.659 20.0432 36.6325 20.0548 36.6045 20.0558C36.5828 20.0567 36.5615 20.0511 36.5431 20.0401L20.7071 4.19299Z" fill="#CECECE" stroke="#CECECE" stroke-width="2"/>
<path d="M31.1114 36.5556H31.8142C31.6098 36.6993 31.3647 36.7778 31.1114 36.7778H24.3337V26.6667V25.6667H23.3337H16.667H15.667V26.6667V36.7778H8.88921C8.636 36.7778 8.39089 36.6993 8.18648 36.5556H8.88921H14.4448H15.4448V35.5556V25.4445H24.5559V35.5556V36.5556H25.5559H31.1114ZM32.3337 35.5556C32.3337 35.8088 32.2551 36.0539 32.1114 36.2584V35.5556V22.1476L32.3337 22.3698V35.5556ZM7.88921 22.4143V35.5556V36.2584C7.74557 36.0539 7.66699 35.8088 7.66699 35.5556V22.6365L7.88921 22.4143Z" fill="#CECECE" stroke="#CECECE" stroke-width="2"/>
</g>
<defs>
<clipPath id="clip0_443_2039">
<rect width="40" height="40" fill="white"/>
</clipPath>
</defs>
</svg>
