<svg width="50" height="50" viewBox="0 0 50 50" fill="none" xmlns="http://www.w3.org/2000/svg">
<path d="M7.49273 8.74023C7.49273 8.40871 7.62443 8.09077 7.85885 7.85635C8.09327 7.62193 8.41121 7.49023 8.74273 7.49023H9.83773C11.6552 7.49023 12.7002 8.67273 13.3052 9.85273C13.7177 10.6602 14.0152 11.6452 14.2627 12.5002H40.0002C40.3865 12.5003 40.7675 12.59 41.1134 12.7621C41.4592 12.9342 41.7604 13.1841 41.9935 13.4922C42.2265 13.8003 42.3849 14.1582 42.4564 14.5379C42.5278 14.9175 42.5103 15.3085 42.4052 15.6802L38.6652 28.8677C38.3677 29.914 37.7372 30.8347 36.8691 31.4903C36.0011 32.1458 34.943 32.5004 33.8552 32.5002H21.1577C20.0609 32.5006 18.9944 32.1403 18.1225 31.4749C17.2506 30.8094 16.6217 29.8758 16.3327 28.8177L14.7277 22.9302C14.7185 22.9038 14.7102 22.8772 14.7027 22.8502L12.1252 14.1077L11.8752 13.2652C11.6252 12.4002 11.4052 11.6352 11.0752 10.9927C10.6777 10.2177 10.3127 9.99273 9.83523 9.99273H8.74023C8.40871 9.99273 8.09077 9.86104 7.85635 9.62662C7.62193 9.3922 7.49023 9.07425 7.49023 8.74273L7.49273 8.74023ZM17.1127 22.1752L18.7452 28.1652C18.89 28.694 19.2045 29.1606 19.6404 29.4931C20.0764 29.8255 20.6095 30.0055 21.1577 30.0052H33.8577C34.4013 30.0047 34.93 29.827 35.3635 29.499C35.797 29.171 36.1118 28.7107 36.2602 28.1877L40.0002 15.0002H15.0002L17.1127 22.1727V22.1752ZM25.0002 38.7477C25.0002 39.7423 24.6051 40.6961 23.9019 41.3994C23.1986 42.1026 22.2448 42.4977 21.2502 42.4977C20.2557 42.4977 19.3018 42.1026 18.5986 41.3994C17.8953 40.6961 17.5002 39.7423 17.5002 38.7477C17.5002 37.7532 17.8953 36.7993 18.5986 36.0961C19.3018 35.3928 20.2557 34.9977 21.2502 34.9977C22.2448 34.9977 23.1986 35.3928 23.9019 36.0961C24.6051 36.7993 25.0002 37.7532 25.0002 38.7477V38.7477ZM22.5002 38.7477C22.5002 38.4162 22.3685 38.0983 22.1341 37.8639C21.8997 37.6294 21.5818 37.4977 21.2502 37.4977C20.9187 37.4977 20.6008 37.6294 20.3663 37.8639C20.1319 38.0983 20.0002 38.4162 20.0002 38.7477C20.0002 39.0793 20.1319 39.3972 20.3663 39.6316C20.6008 39.866 20.9187 39.9977 21.2502 39.9977C21.5818 39.9977 21.8997 39.866 22.1341 39.6316C22.3685 39.3972 22.5002 39.0793 22.5002 38.7477ZM37.5002 38.7477C37.5002 39.7423 37.1051 40.6961 36.4019 41.3994C35.6986 42.1026 34.7448 42.4977 33.7502 42.4977C32.7557 42.4977 31.8018 42.1026 31.0986 41.3994C30.3953 40.6961 30.0002 39.7423 30.0002 38.7477C30.0002 37.7532 30.3953 36.7993 31.0986 36.0961C31.8018 35.3928 32.7557 34.9977 33.7502 34.9977C34.7448 34.9977 35.6986 35.3928 36.4019 36.0961C37.1051 36.7993 37.5002 37.7532 37.5002 38.7477V38.7477ZM35.0002 38.7477C35.0002 38.4162 34.8685 38.0983 34.6341 37.8639C34.3997 37.6294 34.0818 37.4977 33.7502 37.4977C33.4187 37.4977 33.1008 37.6294 32.8663 37.8639C32.6319 38.0983 32.5002 38.4162 32.5002 38.7477C32.5002 39.0793 32.6319 39.3972 32.8663 39.6316C33.1008 39.866 33.4187 39.9977 33.7502 39.9977C34.0818 39.9977 34.3997 39.866 34.6341 39.6316C34.8685 39.3972 35.0002 39.0793 35.0002 38.7477Z" fill="#CECECE"/>
</svg>
