<svg width="26" height="26" viewBox="0 0 26 26" fill="none" xmlns="http://www.w3.org/2000/svg">
<path d="M12.1241 13.6169L3.45068 6.87319L2.75244 6.32983L3.45322 6.87573V20.1093H22.547V6.87573L13.8685 13.6169C13.619 13.8107 13.3122 13.9159 12.9963 13.9159C12.6804 13.9159 12.3736 13.8107 12.1241 13.6169V13.6169Z" fill="black" fill-opacity="0.15"/>
<path d="M22.2498 5.04761L23.2476 6.32983L22.5468 6.87573L23.2501 6.32983L22.2523 5.04761H22.2498Z" fill="black" fill-opacity="0.15"/>
<path d="M23.5625 4.0625H2.4375C1.98809 4.0625 1.625 4.42559 1.625 4.875V21.125C1.625 21.5744 1.98809 21.9375 2.4375 21.9375H23.5625C24.0119 21.9375 24.375 21.5744 24.375 21.125V4.875C24.375 4.42559 24.0119 4.0625 23.5625 4.0625ZM21.1631 5.89316L13 12.2383L4.83691 5.89316H21.1631ZM22.5469 6.87578V20.1094H3.45312V6.87578L2.75234 6.32988L3.45059 6.87324L12.124 13.617C12.3735 13.8108 12.6803 13.916 12.9962 13.916C13.3121 13.916 13.6189 13.8108 13.8684 13.617L22.5469 6.87578L23.2477 6.32988L22.2498 5.04766H22.2523L23.2502 6.32988L22.5469 6.87578Z" fill="white"/>
</svg>
