<svg width="31" height="28" viewBox="0 0 31 28" fill="none" xmlns="http://www.w3.org/2000/svg">
<path d="M21.8484 5.05591L18.4941 8.08833L22.1512 11.3887L21.909 11.9793C21.1807 13.7704 20.03 15.397 18.5365 16.7464C17.043 18.0958 15.2426 19.1358 13.2599 19.7942L12.606 20.0129L12.5787 19.9883L8.95195 16.7071L5.59766 19.7395L8.76123 22.5969C9.08818 22.8895 9.54834 23.0262 9.99639 22.9579C13.5656 22.4247 17.1228 20.6911 20.0139 18.0797C22.905 15.4684 24.8243 12.2528 25.4146 9.02896C25.4903 8.62427 25.339 8.20864 25.012 7.91333L21.8484 5.05591Z" fill="black" fill-opacity="0.15"/>
<path d="M26.5528 6.52695L23.3287 3.61758C22.9352 3.26211 22.4084 3.0625 21.8514 3.0625C21.2943 3.0625 20.7676 3.25938 20.374 3.61758L16.9017 6.74844C16.5081 7.10391 16.2871 7.58242 16.2871 8.08555C16.2871 8.59141 16.5051 9.06445 16.9017 9.42266L19.6142 11.8754C18.9962 13.1758 18.1084 14.3574 16.9985 15.3562C15.8875 16.3652 14.5888 17.1609 13.1478 17.7242L10.4353 15.2715C10.0417 14.916 9.51494 14.7164 8.95791 14.7164C8.68316 14.7155 8.41097 14.7641 8.15729 14.8594C7.9036 14.9547 7.67354 15.0948 7.48057 15.2715L4.00518 18.4023C3.61162 18.7578 3.39062 19.2363 3.39062 19.7395C3.39062 20.2453 3.60859 20.7184 4.00518 21.0766L7.22627 23.9859C7.89834 24.593 8.82471 24.9402 9.77529 24.9402C9.97207 24.9402 10.1628 24.9266 10.3565 24.8965C14.3647 24.3004 18.3427 22.3727 21.5547 19.4742C24.7637 16.5703 26.8949 12.9773 27.5609 9.3543C27.7517 8.32617 27.3702 7.26797 26.5528 6.52695ZM25.4146 9.02891C24.8242 12.2527 22.9049 15.4684 20.0138 18.0797C17.1227 20.691 13.5655 22.4246 9.99629 22.9578C9.54824 23.0262 9.08809 22.8895 8.76113 22.5969L5.59756 19.7395L8.95186 16.707L12.5786 19.9883L12.6059 20.0129L13.2598 19.7941C15.2425 19.1357 17.0429 18.0958 18.5364 16.7464C20.0299 15.3969 21.1806 13.7703 21.9089 11.9793L22.1511 11.3887L18.494 8.08828L21.8483 5.05586L25.0119 7.91328C25.3389 8.20859 25.4902 8.62422 25.4146 9.02891Z" fill="white"/>
</svg>
