<svg width="128" height="84" viewBox="0 0 128 84" fill="none" xmlns="http://www.w3.org/2000/svg">
<g clip-path="url(#clip0_443_2023)">
<path fill-rule="evenodd" clip-rule="evenodd" d="M113.02 73.2801C114.04 71.7201 115.06 70.1601 116.08 68.5401C118.9 63.8601 118.9 63.8601 115.06 59.9601C113.38 58.2201 111.7 56.4801 109.9 54.6801C111.52 53.0001 113.02 51.5001 114.76 49.6401C116.02 51.6801 117.04 53.5401 118.36 55.2201C119.2 56.3001 120.28 57.3201 121.48 57.9201C123.4 58.8801 125.56 59.4801 127.9 60.3801C123.52 65.4801 118.6 69.6801 113.02 73.2801Z" fill="#CECECE"/>
<mask id="path-2-inside-1_443_2023" fill="white">
<path fill-rule="evenodd" clip-rule="evenodd" d="M105.34 51.7998C93.4604 61.8798 79.7804 67.1598 64.1804 67.1598C48.4604 67.1598 34.8404 61.8198 23.0204 51.7998C19.1204 55.8798 15.2804 59.8998 11.4404 63.8598C40.0004 90.3798 88.8404 90.0198 116.92 63.8598C113.08 59.8398 109.18 55.8198 105.34 51.7998ZM37.4204 68.4198C37.0004 69.3198 36.2204 69.7398 35.3204 69.7998C35.3204 69.7998 35.5604 70.0398 35.5604 70.3998L35.6204 71.6598C35.6204 71.8398 35.7404 71.9598 35.9804 72.0798L36.2204 72.1998L35.6204 73.4598L34.4204 72.9198C33.8204 72.6798 33.6404 72.4398 33.6404 71.9598L33.5804 69.9198C33.5804 69.6198 33.4604 69.4998 33.1004 69.3198L32.7404 69.1398L32.1404 70.3398L32.9204 70.6998L32.3204 71.9598L28.9004 70.4598L29.5004 69.1998L30.3404 69.5598L32.5004 65.1198L31.6604 64.7598L32.2604 63.4998L35.5604 64.9998C36.1004 65.2398 36.5804 65.4798 36.9404 65.7798C37.7204 66.4998 37.9604 67.3998 37.4204 68.4198ZM40.7804 75.3798C38.4404 74.6598 37.3004 72.4998 38.0204 70.3398C38.7404 68.2398 40.9604 67.0998 43.3004 67.8198C45.6404 68.5398 46.7804 70.6998 46.1204 72.7998C45.4004 74.8998 43.1204 76.0998 40.7804 75.3798ZM53.7404 78.0798L50.4404 77.4798L50.6804 76.0998L51.3404 76.2198L51.2204 75.1398L49.1804 74.7798L48.7004 75.7398L49.3604 75.8598L49.1204 77.2398L45.8204 76.6398L46.0604 75.2598L46.7204 75.3798L50.0804 69.5598L52.3604 69.9798L53.3204 76.5798L53.9804 76.6998L53.7404 78.0798ZM62.3804 78.6798L61.0604 78.6198C60.4004 78.5598 60.1604 78.4398 59.9804 77.9598L59.1404 76.0998C59.0204 75.8598 58.9004 75.7398 58.4804 75.7398H58.0604L58.0004 77.0598L58.8404 77.1198L58.7204 78.4998L55.0004 78.2598L55.1204 76.8798L56.0204 76.9398L56.3804 72.0198L55.4804 71.9598L55.6004 70.5798L59.2004 70.8198C59.8004 70.8798 60.3404 70.9398 60.8204 71.0598C61.7804 71.4198 62.3804 72.1998 62.2604 73.3398C62.2004 74.3598 61.6604 75.0198 60.8204 75.3798C60.8204 75.3798 61.1204 75.4998 61.3004 75.8598L61.8404 77.0598C61.9004 77.2398 62.0804 77.2998 62.3204 77.3598H62.6204L62.3804 78.6798ZM71.6804 78.0198C71.3204 78.1998 70.9604 78.2598 70.5404 78.2598L66.8804 78.5598L66.8204 77.9598L67.8404 77.8998L67.3004 71.5998L66.2804 71.6598L66.2204 71.0598L69.7604 70.7598C70.3004 70.6998 70.7804 70.7598 71.1404 70.8798C71.7404 71.1198 72.1604 71.6598 72.2204 72.4398C72.2804 73.2198 71.9204 73.8198 71.3804 74.1798C72.2204 74.3598 72.7604 75.0198 72.8804 75.9198C72.9404 76.8798 72.4004 77.6598 71.6804 78.0198ZM74.7404 77.7798L74.6204 77.1798L75.6404 76.9998L74.5604 70.7598L73.5404 70.9398L73.4204 70.3398L76.2404 69.8598L76.3604 70.4598L75.3404 70.6398L76.4204 76.8798L77.4404 76.6998L77.5604 77.2998L74.7404 77.7798ZM84.9404 75.6798C84.2804 75.8598 84.1004 75.7398 83.7404 75.3798L81.4604 73.0998C81.2804 72.9198 81.1004 72.8598 80.7404 72.9198L79.9604 73.0998L80.7404 76.0398L81.7604 75.7998L81.9404 76.3998L79.1804 77.0598L79.0004 76.4598L80.0204 76.2198L78.4004 70.0998L77.3804 70.3398L77.2004 69.7398L79.9004 69.0798L80.0804 69.6798L79.1204 69.9198L79.7804 72.4998L80.9204 72.1998L82.1204 69.1398L81.3404 69.3198L81.1604 68.7198L83.5604 68.1198L83.7404 68.7198L82.9604 68.8998L81.5804 72.2598C81.5804 72.2598 81.7604 72.3198 82.0604 72.6198L84.2804 74.7798C84.4604 74.9598 84.6404 75.0198 84.9404 74.9598L85.3004 74.8398L85.4804 75.4398L84.9404 75.6798ZM86.8604 75.1398L86.6204 74.5398L87.5804 74.1798L85.3004 68.2398L84.4004 68.5998L84.1604 67.9998L89.3804 66.1398L89.9204 67.6398L89.2604 67.8798L88.9004 66.9798L86.0204 67.9998L87.0404 70.6398L89.8604 69.6798L90.1004 70.2798L87.2804 71.2398L88.3004 73.9398L91.3604 72.8598L91.0004 71.9598L91.6604 71.7198L92.2604 73.2198L86.8604 75.1398ZM96.2804 71.6598C95.2604 72.1398 93.8204 72.2598 93.3404 71.2998L93.0404 70.6398L93.7004 70.3398L93.9404 70.8198C94.2404 71.4198 95.1404 71.3598 95.9804 70.9998C96.8804 70.5798 97.3604 69.7998 96.9404 69.0198C96.5204 68.1198 95.5004 68.2398 94.3604 68.2998C93.2804 68.4198 92.0804 68.4798 91.4804 67.2798C90.8804 66.0798 91.6004 65.0598 92.7404 64.5198C93.7604 64.0398 94.9604 63.9198 95.3204 64.6398L95.6804 65.3598L95.0204 65.6598L94.7804 65.1798C94.5404 64.7598 93.7004 64.8798 93.0404 65.1198C92.2604 65.4798 91.7804 66.1398 92.1404 66.9198C92.5604 67.7598 93.4604 67.6398 94.4804 67.5798C95.6804 67.4598 96.9404 67.3998 97.5404 68.6598C98.2004 69.8598 97.5404 70.9998 96.2804 71.6598Z"/>
</mask>
<path fill-rule="evenodd" clip-rule="evenodd" d="M105.34 51.7998C93.4604 61.8798 79.7804 67.1598 64.1804 67.1598C48.4604 67.1598 34.8404 61.8198 23.0204 51.7998C19.1204 55.8798 15.2804 59.8998 11.4404 63.8598C40.0004 90.3798 88.8404 90.0198 116.92 63.8598C113.08 59.8398 109.18 55.8198 105.34 51.7998ZM37.4204 68.4198C37.0004 69.3198 36.2204 69.7398 35.3204 69.7998C35.3204 69.7998 35.5604 70.0398 35.5604 70.3998L35.6204 71.6598C35.6204 71.8398 35.7404 71.9598 35.9804 72.0798L36.2204 72.1998L35.6204 73.4598L34.4204 72.9198C33.8204 72.6798 33.6404 72.4398 33.6404 71.9598L33.5804 69.9198C33.5804 69.6198 33.4604 69.4998 33.1004 69.3198L32.7404 69.1398L32.1404 70.3398L32.9204 70.6998L32.3204 71.9598L28.9004 70.4598L29.5004 69.1998L30.3404 69.5598L32.5004 65.1198L31.6604 64.7598L32.2604 63.4998L35.5604 64.9998C36.1004 65.2398 36.5804 65.4798 36.9404 65.7798C37.7204 66.4998 37.9604 67.3998 37.4204 68.4198ZM40.7804 75.3798C38.4404 74.6598 37.3004 72.4998 38.0204 70.3398C38.7404 68.2398 40.9604 67.0998 43.3004 67.8198C45.6404 68.5398 46.7804 70.6998 46.1204 72.7998C45.4004 74.8998 43.1204 76.0998 40.7804 75.3798ZM53.7404 78.0798L50.4404 77.4798L50.6804 76.0998L51.3404 76.2198L51.2204 75.1398L49.1804 74.7798L48.7004 75.7398L49.3604 75.8598L49.1204 77.2398L45.8204 76.6398L46.0604 75.2598L46.7204 75.3798L50.0804 69.5598L52.3604 69.9798L53.3204 76.5798L53.9804 76.6998L53.7404 78.0798ZM62.3804 78.6798L61.0604 78.6198C60.4004 78.5598 60.1604 78.4398 59.9804 77.9598L59.1404 76.0998C59.0204 75.8598 58.9004 75.7398 58.4804 75.7398H58.0604L58.0004 77.0598L58.8404 77.1198L58.7204 78.4998L55.0004 78.2598L55.1204 76.8798L56.0204 76.9398L56.3804 72.0198L55.4804 71.9598L55.6004 70.5798L59.2004 70.8198C59.8004 70.8798 60.3404 70.9398 60.8204 71.0598C61.7804 71.4198 62.3804 72.1998 62.2604 73.3398C62.2004 74.3598 61.6604 75.0198 60.8204 75.3798C60.8204 75.3798 61.1204 75.4998 61.3004 75.8598L61.8404 77.0598C61.9004 77.2398 62.0804 77.2998 62.3204 77.3598H62.6204L62.3804 78.6798ZM71.6804 78.0198C71.3204 78.1998 70.9604 78.2598 70.5404 78.2598L66.8804 78.5598L66.8204 77.9598L67.8404 77.8998L67.3004 71.5998L66.2804 71.6598L66.2204 71.0598L69.7604 70.7598C70.3004 70.6998 70.7804 70.7598 71.1404 70.8798C71.7404 71.1198 72.1604 71.6598 72.2204 72.4398C72.2804 73.2198 71.9204 73.8198 71.3804 74.1798C72.2204 74.3598 72.7604 75.0198 72.8804 75.9198C72.9404 76.8798 72.4004 77.6598 71.6804 78.0198ZM74.7404 77.7798L74.6204 77.1798L75.6404 76.9998L74.5604 70.7598L73.5404 70.9398L73.4204 70.3398L76.2404 69.8598L76.3604 70.4598L75.3404 70.6398L76.4204 76.8798L77.4404 76.6998L77.5604 77.2998L74.7404 77.7798ZM84.9404 75.6798C84.2804 75.8598 84.1004 75.7398 83.7404 75.3798L81.4604 73.0998C81.2804 72.9198 81.1004 72.8598 80.7404 72.9198L79.9604 73.0998L80.7404 76.0398L81.7604 75.7998L81.9404 76.3998L79.1804 77.0598L79.0004 76.4598L80.0204 76.2198L78.4004 70.0998L77.3804 70.3398L77.2004 69.7398L79.9004 69.0798L80.0804 69.6798L79.1204 69.9198L79.7804 72.4998L80.9204 72.1998L82.1204 69.1398L81.3404 69.3198L81.1604 68.7198L83.5604 68.1198L83.7404 68.7198L82.9604 68.8998L81.5804 72.2598C81.5804 72.2598 81.7604 72.3198 82.0604 72.6198L84.2804 74.7798C84.4604 74.9598 84.6404 75.0198 84.9404 74.9598L85.3004 74.8398L85.4804 75.4398L84.9404 75.6798ZM86.8604 75.1398L86.6204 74.5398L87.5804 74.1798L85.3004 68.2398L84.4004 68.5998L84.1604 67.9998L89.3804 66.1398L89.9204 67.6398L89.2604 67.8798L88.9004 66.9798L86.0204 67.9998L87.0404 70.6398L89.8604 69.6798L90.1004 70.2798L87.2804 71.2398L88.3004 73.9398L91.3604 72.8598L91.0004 71.9598L91.6604 71.7198L92.2604 73.2198L86.8604 75.1398ZM96.2804 71.6598C95.2604 72.1398 93.8204 72.2598 93.3404 71.2998L93.0404 70.6398L93.7004 70.3398L93.9404 70.8198C94.2404 71.4198 95.1404 71.3598 95.9804 70.9998C96.8804 70.5798 97.3604 69.7998 96.9404 69.0198C96.5204 68.1198 95.5004 68.2398 94.3604 68.2998C93.2804 68.4198 92.0804 68.4798 91.4804 67.2798C90.8804 66.0798 91.6004 65.0598 92.7404 64.5198C93.7604 64.0398 94.9604 63.9198 95.3204 64.6398L95.6804 65.3598L95.0204 65.6598L94.7804 65.1798C94.5404 64.7598 93.7004 64.8798 93.0404 65.1198C92.2604 65.4798 91.7804 66.1398 92.1404 66.9198C92.5604 67.7598 93.4604 67.6398 94.4804 67.5798C95.6804 67.4598 96.9404 67.3998 97.5404 68.6598C98.2004 69.8598 97.5404 70.9998 96.2804 71.6598Z" fill="#CECECE" stroke="#CECECE" stroke-width="2" mask="url(#path-2-inside-1_443_2023)"/>
<path fill-rule="evenodd" clip-rule="evenodd" d="M70.4799 77.6598L68.6199 77.8398L68.3799 74.8398L70.3599 74.6598C71.2599 74.5998 71.9799 75.1398 72.0399 76.0398C72.0999 76.6998 71.7999 77.2398 71.3199 77.4798C71.0799 77.5398 70.7199 77.5998 70.4799 77.6598Z" fill="#CECECE"/>
<path fill-rule="evenodd" clip-rule="evenodd" d="M70.1795 74L68.2595 74.18L68.0195 71.54L69.7595 71.42C70.1195 71.36 70.4795 71.42 70.7195 71.54C71.0795 71.72 71.3195 72.14 71.3795 72.62C71.4995 73.34 71.0195 73.94 70.1795 74Z" fill="#CECECE"/>
<path fill-rule="evenodd" clip-rule="evenodd" d="M59.0201 74.2402L58.1201 74.1802L58.2401 72.2002L58.9601 72.2602C59.3201 72.2602 59.5601 72.3202 59.7401 72.4402C60.1001 72.6202 60.1601 72.9802 60.1001 73.3402C60.1001 74.0002 59.6801 74.3002 59.0201 74.2402Z" fill="#CECECE"/>
<path fill-rule="evenodd" clip-rule="evenodd" d="M50.6204 72.1399C50.8604 71.7199 50.9204 71.3599 50.9204 71.3599H50.9804C50.9804 71.3599 50.9204 71.7199 50.9804 72.1999L51.1004 73.6999L49.9004 73.5199L50.6204 72.1399Z" fill="#CECECE"/>
<path fill-rule="evenodd" clip-rule="evenodd" d="M41.3204 73.7598C40.1804 73.3998 39.5804 72.1998 40.0004 70.8798C40.4204 69.6198 41.6204 69.0198 42.7604 69.3198C43.9004 69.6798 44.5004 70.8798 44.0804 72.0798C43.6604 73.4598 42.4604 74.1198 41.3204 73.7598Z" fill="#CECECE"/>
<path fill-rule="evenodd" clip-rule="evenodd" d="M34.1798 68.3001L33.3398 67.9401L34.2398 66.1401L34.8998 66.4401C35.1998 66.5601 35.4398 66.7401 35.5598 66.8601C35.7998 67.1601 35.7398 67.4601 35.5598 67.8201C35.2598 68.4201 34.7798 68.5401 34.1798 68.3001Z" fill="#CECECE"/>
<path fill-rule="evenodd" clip-rule="evenodd" d="M10.3602 65.1798C12.0402 67.8798 13.6602 70.6398 15.2802 73.3998C15.1602 73.5198 15.0402 73.6998 14.9202 73.8198C10.1202 69.5598 5.26016 65.2398 0.160156 60.7398C3.46016 59.3598 6.58016 58.7598 8.74016 57.0198C10.8402 55.2798 11.9202 52.3998 13.6602 49.8198C15.3402 51.4998 16.9002 53.0598 18.5802 54.7998C15.9402 57.4998 13.4202 60.1398 10.7802 62.7198C9.82015 63.4398 9.70015 64.0998 10.3602 65.1798Z" fill="#CECECE"/>
<path fill-rule="evenodd" clip-rule="evenodd" d="M13.6604 67.7002C16.0604 69.4402 18.5204 71.1802 20.9804 72.9802C20.3804 73.8802 19.7804 74.7802 19.0004 75.9802C17.0204 73.1602 15.2204 70.5802 13.3604 67.9402C13.4804 67.8202 13.5404 67.7602 13.6604 67.7002Z" fill="#CECECE"/>
<path fill-rule="evenodd" clip-rule="evenodd" d="M114.76 68.18C113.02 70.7 111.34 73.16 109.42 75.98C108.58 74.84 107.98 73.94 107.32 73.04C109.78 71.3 112.06 69.62 114.4 68C114.52 68 114.64 68.06 114.76 68.18Z" fill="#CECECE"/>
<path d="M90.2198 29.9599C90.5798 29.8399 91.2999 29.6599 91.7799 29.3599C91.8399 30.3199 92.0199 32.9599 90.1599 34.3399C89.9199 34.1599 89.6198 34.0399 89.4398 33.9199L90.2198 29.9599ZM59.2599 18.1399C59.7999 17.3599 62.1399 15.6799 63.0399 15.3199C50.0199 32.8999 75.5199 44.1199 70.1799 59.1799C74.4399 56.8399 76.6599 53.1799 76.7799 49.2799C77.1399 38.9599 61.2399 36.1999 69.7599 21.0199C66.5199 31.2199 69.4599 34.8199 76.7799 40.2199C75.4599 37.0399 77.3198 32.4199 81.2198 30.0199L75.3398 27.5599L83.4398 29.5999C79.7798 31.4599 76.2999 37.6399 79.2999 40.9999C81.2799 43.2199 85.1799 41.7799 86.8599 45.9799C89.1999 44.5999 89.3199 42.9199 89.4999 40.6999C90.0399 41.5399 90.1598 42.9199 90.0398 43.7599C92.4998 41.4199 92.1999 36.4999 88.7799 34.9399C88.1799 35.1199 87.0998 35.4199 84.9398 36.5599C82.9598 37.5799 83.8598 38.7799 81.3398 38.5999C81.3398 38.5999 80.3799 37.6999 83.7999 35.8999C85.9599 34.7599 87.6999 34.0999 88.3599 33.9199L89.1398 30.0199C88.9598 29.7199 88.4799 29.1199 87.6999 28.5199C86.9799 27.9199 85.8399 27.3199 85.0599 26.7199C84.7599 26.4799 84.3399 26.4199 84.2799 26.1799C84.8799 24.9199 88.1199 25.3399 89.3799 25.4599C89.6799 25.3999 90.3998 25.2199 91.5398 25.2799C89.0798 22.9999 82.7798 18.3799 79.8398 16.0999C79.3598 14.8999 78.3998 12.8599 77.6198 11.9599C79.3598 13.0999 80.3198 14.8999 80.6198 15.6199L82.2999 16.6999C83.3199 10.8199 81.1599 0.979923 70.4199 1.87992C71.7999 3.01992 72.9999 5.17992 73.2999 7.21992C61.8399 -8.86008 38.0199 4.03992 39.2199 18.4999C39.9999 16.9399 44.7999 12.1399 49.0599 11.5999C39.8199 17.1799 30.8799 30.3199 40.1199 41.1799C37.3599 31.9999 42.9399 22.0999 49.6599 18.3799C29.9199 39.8599 49.7199 50.2399 57.0399 62.4199C64.2999 48.4999 37.7799 46.2199 47.7999 25.5199C44.3199 38.9599 51.5199 45.3799 58.2999 49.8799C52.0599 40.4599 52.7799 29.6599 58.1799 19.8799C53.9199 23.5399 50.1999 28.9399 50.8599 37.7599C48.6999 30.2599 51.3399 23.5399 56.8599 18.6199C53.1399 14.2999 53.7999 7.09992 59.4999 5.77992C62.4399 5.11992 65.9799 6.85992 67.2999 10.0399C61.5999 2.29992 50.7999 10.2199 59.2599 18.1399ZM45.5199 9.49992C50.7399 1.57992 63.0399 -0.400076 69.3999 6.49992C61.2999 1.21992 51.7599 3.79992 45.5199 9.49992ZM66.7599 37.5199C60.7599 28.2799 60.3399 19.3399 69.8199 12.7999C61.4799 21.5599 63.4599 29.3599 66.7599 37.5199ZM57.6399 27.1399C58.5999 40.5799 74.7399 50.0599 67.1199 64.3999C65.3799 53.1799 51.4599 45.0199 57.6399 27.1399ZM65.7999 10.8199C64.2999 12.2599 62.3199 10.8799 58.7199 13.1599C57.9399 7.81992 64.2999 8.05992 65.7999 10.8199ZM77.1999 18.2599C78.0999 18.6199 82.5999 23.9599 83.2599 25.0999C81.1599 23.2999 79.4199 21.7399 77.0799 19.9999L75.2799 20.7799L75.6398 19.6999L71.8599 18.6199L74.9799 17.4799C76.4799 16.9399 75.9999 16.2799 75.2799 15.4999C76.5399 15.8599 77.6199 16.5199 77.1999 18.2599ZM76.6599 60.6799C77.0199 59.2999 77.4399 57.0199 76.5999 54.9799C78.4599 51.6199 79.2999 46.5799 77.6799 43.0399C84.5799 48.0199 86.2599 57.4999 76.6599 60.6799Z" fill="#CECECE"/>
</g>
<defs>
<clipPath id="clip0_443_2023">
<rect width="128" height="84" fill="white"/>
</clipPath>
</defs>
</svg>
